<svg xmlns="http://www.w3.org/2000/svg" viewBox="-0.1152 -0.85 1.2304 1.2304" width="240" height="240"><filter id="washi"><feTurbulence type="fractalNoise" baseFrequency="6" numOctaves="2" seed="4"/><feColorMatrix values="0 0 0 0 0.2 0 0 0 0 0.19 0 0 0 0 0.17 0 0 0 0.09 0"/><feComposite in2="SourceGraphic" operator="in"/><feMerge><feMergeNode in="SourceGraphic"/><feMergeNode/></feMerge></filter><g filter="url(#washi)" stroke="#33302C" stroke-width="0.0048" stroke-linejoin="round"><polygon points="0.5,-0.1464 0.3232,0.0303 0.6768,0.0303" fill="#B08A6A"/><polygon points="0.3232,0.0303 -0.0303,-0.3232 0.2525,-0.5 0.7475,-0.5 1.0303,-0.3232 0.6768,0.0303" fill="#F3EDE2"/><polygon points="-0.0303,-0.3232 0.3232,0.0303 0.6768,0.0303 1.0303,-0.3232 0.7475,-0.5 0.2525,-0.5" fill="#B08A6A"/><polygon points="0.0511,-0.0869 -0.0303,-0.3232 0.2525,-0.5" fill="#F3EDE2"/><polygon points="1.0303,-0.3232 0.9489,-0.0869 0.7475,-0.5" fill="#F3EDE2"/><polygon points="-0.0303,-0.3232 0.0511,-0.0869 0.2525,-0.5" fill="#B08A6A"/><polygon points="0.9489,-0.0869 1.0303,-0.3232 0.7475,-0.5" fill="#B08A6A"/><polygon points="0.3232,0.0303 0.5,-0.1464 0.6768,0.0303" fill="#F3EDE2"/></g></svg>
